REM MD5 3bf9a935d991059bfb8e96d2cde6f430
FILE "Bistro, The - Ryouri & Wine no Shokunin-tachi (Japan).bin" BINARY
  TRACK 01 MODE2/2352
    INDEX 01 00:00:00
  TRACK 02 AUDIO
    INDEX 00 09:56:73
    INDEX 01 09:58:73
  TRACK 03 AUDIO
    INDEX 00 12:08:29
    INDEX 01 12:10:29
REM LEADOUT 16:56:64
